<?xml version="1.0" encoding="utf-8"?>
<!-- Svg Vector Icons : http://www.onlinewebfonts.com/icon -->
<!DOCTYPE svg PUBLIC "-//W3C//DTD SVG 1.1//EN" "http://www.w3.org/Graphics/SVG/1.1/DTD/svg11.dtd">
<svg version="1.1" xmlns="http://www.w3.org/2000/svg" xmlns:xlink="http://www.w3.org/1999/xlink" x="0px" y="0px" viewBox="0 0 256 256" enable-background="new 0 0 256 256" xml:space="preserve">
<metadata> Svg Vector Icons : http://www.onlinewebfonts.com/icon </metadata>
<g><g><g><path fill="#000000" d="M119,10.4c-10,0.9-20.9,3.7-30.8,8.1C62,30.3,41.8,53.9,34.5,81.6c-2.1,7.8-2.8,13.2-3.1,21.8c-0.8,23.2,6.1,44.5,20.3,63c5.9,7.6,11.9,13.2,23.2,21.5l1.2,0.9l-4.4,6.7c-2.4,3.7-6,9.9-8,13.8l-3.5,7.1h-8.5h-8.5v14.8V246H128h84.7v-14.8v-14.8h-8.5h-8.5l-3.5-7.1c-1.9-3.8-5.5-10-8-13.8l-4.5-6.7l1.3-0.9c10.8-7.8,17.4-13.9,23.2-21.5c30.1-38.9,26.7-93.4-8-128.1C175.9,17.9,147.9,7.8,119,10.4z M141.5,41.3c20.3,4.3,37.3,17.6,46.4,36.3c3.3,6.7,5,12,6.1,19c1,6.2,0.6,18.7-0.7,24.4c-6.3,26.9-27,46.8-54,51.7c-5.7,1.1-17.1,1-22.8,0c-27.2-5-48.3-25.5-54.2-52.7c-1.2-5.5-1.2-20.7,0-26.3c2.9-13.3,8.8-24.2,18.3-33.8c11-11,23.6-17.3,38.9-19.4C124.4,39.8,136.3,40.2,141.5,41.3z"/><path fill="#000000" d="M120.3,54.8c-6.9,1-15.2,4.2-21.5,8.4c-3.8,2.5-10,8.4-13,12.4c-3.2,4.3-7.1,12.3-8.6,17.8c-1.6,6.2-2,16.5-0.9,22.6c4.4,23.3,22.9,40.4,46.6,43c15.6,1.7,32.2-4.5,43.2-16.2c7.1-7.6,11.7-16.6,13.6-26.8c1.1-6.1,0.7-16.4-0.9-22.6c-1.4-5.5-5.3-13.5-8.6-17.8c-2.9-3.8-9.2-9.9-12.8-12.3C146.4,56.1,133,53,120.3,54.8z M135.3,69.3c8,1.9,14,7.8,12.8,12.7c-2.6,10.6-23.1,14.6-35.1,6.9c-2.5-1.6-4.8-4.7-5.2-7.2c-1-5.2,6-11.3,14.6-12.8C125.2,68.5,132.6,68.7,135.3,69.3z"/></g></g></g>
</svg>